<svg width="108" height="108" viewBox="0 0 108 108" fill="none" xmlns="http://www.w3.org/2000/svg">
<circle cx="54" cy="54" r="52" stroke="#8E209F" stroke-width="3" stroke-linecap="round" stroke-dasharray="4 12"/>
<path d="M61 72C61 72.5523 61.4477 73 62 73C62.5523 73 63 72.5523 63 72H61ZM58 35V34V35ZM50 35V34V35ZM46 39.1111H45H46ZM45 72C45 72.5523 45.4477 73 46 73C46.5523 73 47 72.5523 47 72H45ZM38 44.2222H70V42.2222H38V44.2222ZM70 44.2222C71.6312 44.2222 73 45.5891 73 47.3333H75C75 44.5365 72.7871 42.2222 70 42.2222V44.2222ZM73 47.3333V67.8889H75V47.3333H73ZM73 67.8889C73 69.6331 71.6312 71 70 71V73C72.7871 73 75 70.6857 75 67.8889H73ZM70 71H38V73H70V71ZM38 71C36.3688 71 35 69.6331 35 67.8889H33C33 70.6857 35.2129 73 38 73V71ZM35 67.8889V47.3333H33V67.8889H35ZM35 47.3333C35 45.5891 36.3688 44.2222 38 44.2222V42.2222C35.2129 42.2222 33 44.5365 33 47.3333H35ZM63 72V39.1111H61V72H63ZM63 39.1111C63 37.7643 62.4797 36.4673 61.5452 35.5068L60.1117 36.9015C60.6775 37.4829 61 38.2773 61 39.1111H63ZM61.5452 35.5068C60.6097 34.5453 59.3351 34 58 34V36C58.7867 36 59.5468 36.3209 60.1117 36.9015L61.5452 35.5068ZM58 34H50V36H58V34ZM50 34C48.6649 34 47.3903 34.5453 46.4548 35.5068L47.8883 36.9015C48.4532 36.3209 49.2133 36 50 36V34ZM46.4548 35.5068C45.5203 36.4673 45 37.7643 45 39.1111H47C47 38.2773 47.3225 37.4829 47.8883 36.9015L46.4548 35.5068ZM45 39.1111V72H47V39.1111H45Z" fill="#8E209F"/>
</svg>
