<svg width="201" height="40" viewBox="0 0 201 40" fill="none" xmlns="http://www.w3.org/2000/svg">
<path d="M101.792 38.3711L93.7463 25.7467V7.91858L113.231 38.3711H122.492L113.566 24.4797L122.45 21.1313V13.3484L109.544 18.1901L105.563 11.991L122.45 5.61087V1.62897H88.5085V38.3711H101.792ZM124 40H87V0H124V40Z" fill="white"/>
<path d="M9.37598 22.5825H3.83301V20.0527H9.37598C10.5898 20.0527 11.5728 19.8594 12.3247 19.4727C13.0767 19.0859 13.6245 18.5488 13.9683 17.8613C14.3228 17.1738 14.5 16.3896 14.5 15.5088C14.5 14.7031 14.3228 13.9458 13.9683 13.2368C13.6245 12.5278 13.0767 11.9585 12.3247 11.5288C11.5728 11.0884 10.5898 10.8682 9.37598 10.8682H3.83301V31.7832H0.723145V8.32227H9.37598C11.1484 8.32227 12.647 8.62842 13.8716 9.24072C15.0962 9.85303 16.0254 10.7017 16.6592 11.7866C17.293 12.8608 17.6099 14.0908 17.6099 15.4766C17.6099 16.9805 17.293 18.2642 16.6592 19.3276C16.0254 20.3911 15.0962 21.2021 13.8716 21.7607C12.647 22.3086 11.1484 22.5825 9.37598 22.5825Z" fill="white"/>
<path d="M40.4295 19.3115V20.7939C40.4295 22.5557 40.2093 24.1348 39.7688 25.5312C39.3284 26.9277 38.6946 28.1147 37.8675 29.0923C37.0403 30.0698 36.0467 30.8164 34.8865 31.332C33.7371 31.8477 32.448 32.1055 31.0193 32.1055C29.6336 32.1055 28.3606 31.8477 27.2005 31.332C26.0511 30.8164 25.0521 30.0698 24.2034 29.0923C23.3655 28.1147 22.7156 26.9277 22.2537 25.5312C21.7918 24.1348 21.5608 22.5557 21.5608 20.7939V19.3115C21.5608 17.5498 21.7864 15.9761 22.2376 14.5903C22.6995 13.1938 23.3494 12.0068 24.1873 11.0293C25.0252 10.041 26.0188 9.28906 27.1683 8.77344C28.3284 8.25781 29.6014 8 30.9871 8C32.4158 8 33.7049 8.25781 34.8543 8.77344C36.0145 9.28906 37.0081 10.041 37.8353 11.0293C38.6731 12.0068 39.3123 13.1938 39.7527 14.5903C40.2039 15.9761 40.4295 17.5498 40.4295 19.3115ZM37.3519 20.7939V19.2793C37.3519 17.8828 37.2068 16.6475 36.9168 15.5732C36.6375 14.499 36.2239 13.5967 35.6761 12.8662C35.1282 12.1357 34.4568 11.5825 33.6619 11.2065C32.8777 10.8306 31.9861 10.6426 30.9871 10.6426C30.0203 10.6426 29.1448 10.8306 28.3606 11.2065C27.5872 11.5825 26.9212 12.1357 26.3626 12.8662C25.8147 13.5967 25.3904 14.499 25.0896 15.5732C24.7889 16.6475 24.6385 17.8828 24.6385 19.2793V20.7939C24.6385 22.2012 24.7889 23.4473 25.0896 24.5322C25.3904 25.6064 25.8201 26.5142 26.3787 27.2554C26.948 27.9858 27.6194 28.5391 28.3929 28.915C29.1771 29.291 30.0525 29.479 31.0193 29.479C32.0291 29.479 32.9261 29.291 33.7103 28.915C34.4944 28.5391 35.1551 27.9858 35.6922 27.2554C36.24 26.5142 36.6536 25.6064 36.9329 24.5322C37.2122 23.4473 37.3519 22.2012 37.3519 20.7939Z" fill="white"/>
<path d="M45.9112 8.32227H53.6778C55.4396 8.32227 56.9273 8.59082 58.1412 9.12793C59.3658 9.66504 60.295 10.46 60.9288 11.5127C61.5733 12.5547 61.8956 13.8384 61.8956 15.3638C61.8956 16.438 61.6754 17.4209 61.235 18.3125C60.8053 19.1934 60.1822 19.9453 59.3658 20.5684C58.8005 20.998 58.1559 21.3509 57.432 21.6272C57.1242 21.7446 56.8026 21.8654 56.466 21.9552L55.5 22.2832L54.5245 22.2764H49.0211V19.7466H53.7745C54.8917 19.7466 55.8209 19.5532 56.5621 19.1665C57.3033 18.769 57.8619 18.2373 58.2379 17.5713C58.6139 16.9053 58.8019 16.1694 58.8019 15.3638C58.8019 14.4614 58.6246 13.6719 58.2701 12.9951C57.9156 12.3184 57.357 11.7974 56.5943 11.4321C55.8424 11.0562 54.8702 10.8682 53.6778 10.8682H49.0211V31.7832H45.9112V8.32227ZM59.6236 31.7832L54.5245 22.2764L55.5 22.2832L57.432 21.6272L62.943 31.5898V31.7832H59.6236Z" fill="white"/>
<path d="M74.4511 10.8682V31.7832H71.3895V10.8682H74.4511ZM81.9921 8.32227V10.8682H63.8646V8.32227L73 8.2832L81.9921 8.32227Z" fill="white"/>
<path d="M148.769 19.3115V20.7939C148.769 22.5557 148.549 24.1348 148.108 25.5312C147.668 26.9277 147.034 28.1147 146.207 29.0923C145.38 30.0698 144.386 30.8164 143.226 31.332C142.076 31.8477 140.787 32.1055 139.359 32.1055C137.973 32.1055 136.7 31.8477 135.54 31.332C134.39 30.8164 133.391 30.0698 132.543 29.0923C131.705 28.1147 131.055 26.9277 130.593 25.5312C130.131 24.1348 129.9 22.5557 129.9 20.7939V19.3115C129.9 17.5498 130.126 15.9761 130.577 14.5903C131.039 13.1938 131.689 12.0068 132.527 11.0293C133.364 10.041 134.358 9.28906 135.508 8.77344C136.668 8.25781 137.941 8 139.326 8C140.755 8 142.044 8.25781 143.194 8.77344C144.354 9.28906 145.347 10.041 146.175 11.0293C147.012 12.0068 147.652 13.1938 148.092 14.5903C148.543 15.9761 148.769 17.5498 148.769 19.3115ZM145.691 20.7939V19.2793C145.691 17.8828 145.546 16.6475 145.256 15.5732C144.977 14.499 144.563 13.5967 144.015 12.8662C143.467 12.1357 142.796 11.5825 142.001 11.2065C141.217 10.8306 140.325 10.6426 139.326 10.6426C138.36 10.6426 137.484 10.8306 136.7 11.2065C135.926 11.5825 135.26 12.1357 134.702 12.8662C134.154 13.5967 133.73 14.499 133.429 15.5732C133.128 16.6475 132.978 17.8828 132.978 19.2793V20.7939C132.978 22.2012 133.128 23.4473 133.429 24.5322C133.73 25.6064 134.159 26.5142 134.718 27.2554C135.287 27.9858 135.959 28.5391 136.732 28.915C137.516 29.291 138.392 29.479 139.359 29.479C140.368 29.479 141.265 29.291 142.05 28.915C142.834 28.5391 143.494 27.9858 144.031 27.2554C144.579 26.5142 144.993 25.6064 145.272 24.5322C145.551 23.4473 145.691 22.2012 145.691 20.7939Z" fill="white"/>
<path d="M168.479 29.2534V31.7832H157.36V29.2534H168.479ZM157.36 8.32227V31.7832H154.25V8.32227H157.36Z" fill="white"/>
<path d="M176.2 8.32227V31.7832H173.09V8.32227H176.2Z" fill="white"/>
<path d="M200.744 19.3115V20.7939C200.744 22.5557 200.524 24.1348 200.083 25.5312C199.643 26.9277 199.009 28.1147 198.182 29.0923C197.355 30.0698 196.361 30.8164 195.201 31.332C194.051 31.8477 192.762 32.1055 191.334 32.1055C189.948 32.1055 188.675 31.8477 187.515 31.332C186.365 30.8164 185.366 30.0698 184.518 29.0923C183.68 28.1147 183.03 26.9277 182.568 25.5312C182.106 24.1348 181.875 22.5557 181.875 20.7939V19.3115C181.875 17.5498 182.101 15.9761 182.552 14.5903C183.014 13.1938 183.664 12.0068 184.502 11.0293C185.339 10.041 186.333 9.28906 187.483 8.77344C188.643 8.25781 189.916 8 191.301 8C192.73 8 194.019 8.25781 195.169 8.77344C196.329 9.28906 197.322 10.041 198.15 11.0293C198.987 12.0068 199.627 13.1938 200.067 14.5903C200.518 15.9761 200.744 17.5498 200.744 19.3115ZM197.666 20.7939V19.2793C197.666 17.8828 197.521 16.6475 197.231 15.5732C196.952 14.499 196.538 13.5967 195.99 12.8662C195.442 12.1357 194.771 11.5825 193.976 11.2065C193.192 10.8306 192.3 10.6426 191.301 10.6426C190.335 10.6426 189.459 10.8306 188.675 11.2065C187.901 11.5825 187.235 12.1357 186.677 12.8662C186.129 13.5967 185.705 14.499 185.404 15.5732C185.103 16.6475 184.953 17.8828 184.953 19.2793V20.7939C184.953 22.2012 185.103 23.4473 185.404 24.5322C185.705 25.6064 186.134 26.5142 186.693 27.2554C187.262 27.9858 187.934 28.5391 188.707 28.915C189.491 29.291 190.367 29.479 191.334 29.479C192.343 29.479 193.24 29.291 194.025 28.915C194.809 28.5391 195.469 27.9858 196.006 27.2554C196.554 26.5142 196.968 25.6064 197.247 24.5322C197.526 23.4473 197.666 22.2012 197.666 20.7939Z" fill="white"/>
</svg>
