<svg width="24px" height="24px" viewBox="0 0 100 100" fill="none" xmlns="http://www.w3.org/2000/svg">
<path d="M24.7 51.7L24.9 51.4L37.9 31.1C38.1 30.8 38.5 30.8 38.7 31.2C40.9 36.1 42.7 42.1 41.9 45.9C41.5 47.5 40.5 49.6 39.3 51.5C39.2 51.8 39 52.1 38.8 52.3C38.7 52.4 38.6 52.5 38.4 52.5H25C24.7 52.4 24.5 52 24.7 51.7Z" fill="#21D4FD"/>
<path d="M82.6 55.5V58.7C82.6 58.9 82.5 59 82.3 59.1C81.3 59.5 77.8 61.1 76.4 63.1C72.7 68.2 69.9 75.5 63.7 75.5H37.7C28.5 75.5 21 68 21 58.7V58.4C21 58.2 21.2 58 21.4 58H36C36.3 58 36.5 58.3 36.5 58.5C36.4 59.4 36.6 60.4 37 61.3C37.9 63.1 39.7 64.1 41.6 64.1H48.8V58.5H41.7C41.3 58.5 41.1 58.1 41.3 57.8C41.4 57.7 41.5 57.6 41.6 57.4C42.3 56.4 43.2 55 44.2 53.3C44.9 52.2 45.5 50.9 46 49.7C46.1 49.5 46.2 49.3 46.3 49C46.4 48.6 46.6 48.2 46.7 47.9C46.8 47.6 46.9 47.3 47 47C47.2 46 47.3 44.9 47.3 43.7C47.3 43.3 47.3 42.8 47.2 42.3C47.2 41.8 47.1 41.3 47.1 40.8C47.1 40.4 47 39.9 46.9 39.5C46.8 38.8 46.7 38.2 46.5 37.5L46.4 37.3C46.3 36.9 46.2 36.4 46 36C45.6 34.6 45.1 33.2 44.6 32C44.4 31.5 44.2 31 44 30.5C43.7 29.8 43.4 29.1 43.1 28.5C43 28.2 42.8 28 42.7 27.7C42.6 27.4 42.4 27.1 42.3 26.8C42.2 26.6 42.1 26.4 42 26.2L41.1 24.6C41 24.4 41.2 24.1 41.4 24.2L46.9 25.7L47.6 25.9L48.4 26.1L48.7 26.2V22.9C48.7 21.3 50 20 51.5 20C52.3 20 53 20.3 53.5 20.8C54 21.3 54.3 22 54.3 22.8V27.6L54.9 27.8C54.9 27.8 55 27.8 55 27.9C55.1 28 55.3 28.2 55.6 28.4C55.8 28.6 56 28.8 56.3 29C56.8 29.4 57.5 30 58.2 30.6C58.4 30.8 58.6 30.9 58.7 31.1C59.6 31.9 60.6 32.9 61.6 34C61.9 34.3 62.1 34.6 62.4 34.9C62.7 35.2 62.9 35.6 63.2 35.9C63.5 36.3 63.9 36.8 64.2 37.2C64.3 37.4 64.5 37.6 64.6 37.9C65 38.5 65.3 39.1 65.7 39.7C65.8 40 66 40.3 66.1 40.6C66.5 41.4 66.8 42.2 66.9 43.1C67 43.3 67 43.5 67 43.6C67.1 43.8 67.1 44.1 67.1 44.4C67.2 45.3 67.1 46.1 67 47C66.9 47.4 66.8 47.7 66.7 48.1C66.6 48.4 66.5 48.8 66.3 49.2C66 49.9 65.6 50.6 65.2 51.3C65.1 51.5 64.9 51.8 64.7 52.1C64.5 52.4 64.3 52.6 64.2 52.9C64 53.2 63.7 53.5 63.5 53.8C63.3 54.1 63.1 54.4 62.8 54.7C62.5 55.1 62.1 55.5 61.8 55.9C61.6 56.1 61.4 56.4 61.1 56.6C60.9 56.8 60.7 57.1 60.4 57.3C60.1 57.6 59.8 57.9 59.5 58.1L58.9 58.6C58.8 58.7 58.7 58.7 58.6 58.7H54.2V64.3H59.7C60.9 64.3 62.1 63.9 63 63.1C63.3 62.8 64.7 61.6 66.4 59.8C66.5 59.7 66.5 59.7 66.6 59.7L82.1 55C82.4 54.9 82.6 55.2 82.6 55.5Z" fill="#21D4FD"/>
</svg>
