<svg width="12" height="12" viewBox="0 0 12 12" fill="none" xmlns="http://www.w3.org/2000/svg">
<path d="M1 5.5C0.723858 5.5 0.5 5.72386 0.5 6C0.5 6.27614 0.723858 6.5 1 6.5V5.5ZM11 6L11.3536 6.35355C11.5488 6.15829 11.5488 5.84171 11.3536 5.64645L11 6ZM6.35355 0.646447C6.15829 0.451184 5.84171 0.451184 5.64645 0.646447C5.45118 0.841709 5.45118 1.15829 5.64645 1.35355L6.35355 0.646447ZM5.64645 10.6464C5.45118 10.8417 5.45118 11.1583 5.64645 11.3536C5.84171 11.5488 6.15829 11.5488 6.35355 11.3536L5.64645 10.6464ZM1 6.5H11V5.5H1V6.5ZM5.64645 1.35355L10.6464 6.35355L11.3536 5.64645L6.35355 0.646447L5.64645 1.35355ZM10.6464 5.64645L5.64645 10.6464L6.35355 11.3536L11.3536 6.35355L10.6464 5.64645Z" fill="white"/>
</svg>
