<svg width="23" height="16" viewBox="0 0 23 16" fill="none" xmlns="http://www.w3.org/2000/svg">
<path d="M22.0707 1.70711C22.4613 1.31658 22.4613 0.683417 22.0707 0.292893C21.6802 -0.0976311 21.0471 -0.0976311 20.6565 0.292893L22.0707 1.70711ZM7.36364 15L6.65653 15.7071C7.04705 16.0976 7.68022 16.0976 8.07074 15.7071L7.36364 15ZM1.70711 7.92926C1.31658 7.53873 0.683417 7.53873 0.292893 7.92926C-0.0976311 8.31978 -0.0976311 8.95295 0.292893 9.34347L1.70711 7.92926ZM20.6565 0.292893L6.65653 14.2929L8.07074 15.7071L22.0707 1.70711L20.6565 0.292893ZM8.07074 14.2929L1.70711 7.92926L0.292893 9.34347L6.65653 15.7071L8.07074 14.2929Z" fill="white"/>
</svg>
