<svg width="151" height="151" viewBox="0 0 151 151" fill="none" xmlns="http://www.w3.org/2000/svg">
<circle cx="75.5" cy="75.5" r="72.5" stroke="#8E209F" stroke-width="5" stroke-linecap="round" stroke-dasharray="4 12"/>
<path d="M100.884 105.173C100.884 106.554 102.004 107.673 103.384 107.673C104.765 107.673 105.884 106.554 105.884 105.173H100.884ZM89.4422 84.2595V81.7595V84.2595ZM61.5575 84.2595V81.7595V84.2595ZM47.6152 98.2018H45.1152H47.6152ZM45.1152 105.173C45.1152 106.554 46.2345 107.673 47.6152 107.673C48.9959 107.673 50.1152 106.554 50.1152 105.173H45.1152ZM105.884 105.173V98.2018H100.884V105.173H105.884ZM105.884 98.2018C105.884 93.8411 104.152 89.6589 101.069 86.5754L97.5331 90.1109C99.6789 92.2568 100.884 95.1672 100.884 98.2018H105.884ZM101.069 86.5754C97.9851 83.4919 93.8029 81.7595 89.4422 81.7595V86.7595C92.4768 86.7595 95.3872 87.9651 97.5331 90.1109L101.069 86.5754ZM89.4422 81.7595H61.5575V86.7595H89.4422V81.7595ZM61.5575 81.7595C57.1968 81.7595 53.0146 83.4919 49.9311 86.5754L53.4666 90.1109C55.6125 87.9651 58.5229 86.7595 61.5575 86.7595V81.7595ZM49.9311 86.5754C46.8475 89.6589 45.1152 93.8411 45.1152 98.2018H50.1152C50.1152 95.1672 51.3208 92.2568 53.4666 90.1109L49.9311 86.5754ZM45.1152 98.2018V105.173H50.1152V98.2018H45.1152ZM86.9422 56.3749C86.9422 62.6943 81.8193 67.8172 75.4998 67.8172V72.8172C84.5807 72.8172 91.9422 65.4558 91.9422 56.3749H86.9422ZM75.4998 67.8172C69.1804 67.8172 64.0575 62.6943 64.0575 56.3749H59.0575C59.0575 65.4558 66.419 72.8172 75.4998 72.8172V67.8172ZM64.0575 56.3749C64.0575 50.0555 69.1804 44.9326 75.4998 44.9326V39.9326C66.419 39.9326 59.0575 47.2941 59.0575 56.3749H64.0575ZM75.4998 44.9326C81.8193 44.9326 86.9422 50.0555 86.9422 56.3749H91.9422C91.9422 47.2941 84.5807 39.9326 75.4998 39.9326V44.9326Z" fill="#8E209F"/>
</svg>
