<svg width="151" height="151" viewBox="0 0 151 151" fill="none" xmlns="http://www.w3.org/2000/svg">
<circle cx="75.5" cy="75.5" r="72.5" stroke="#8E209F" stroke-width="5" stroke-linecap="round" stroke-dasharray="4 12"/>
<path d="M85.1976 64.3986L94.9905 54.6056M100.586 49.0096L94.9905 54.6056L100.586 49.0096ZM73.6978 75.8983C75.1425 77.3238 76.291 79.021 77.0771 80.8921C77.8632 82.7633 78.2714 84.7714 78.2782 86.801C78.285 88.8306 77.8903 90.8415 77.1167 92.7178C76.3432 94.5942 75.2061 96.2991 73.771 97.7342C72.3359 99.1693 70.631 100.306 68.7546 101.08C66.8782 101.853 64.8674 102.248 62.8378 102.241C60.8082 102.235 58.8001 101.826 56.9289 101.04C55.0577 100.254 53.3606 99.1057 51.9351 97.661C49.1319 94.7586 47.5808 90.8714 47.6158 86.8364C47.6509 82.8015 49.2693 78.9418 52.1225 76.0886C54.9758 73.2353 58.8355 71.6169 62.8704 71.5818C66.9054 71.5468 70.7926 73.0979 73.695 75.9011L73.6978 75.8983ZM73.6978 75.8983L85.1976 64.3986L73.6978 75.8983ZM85.1976 64.3986L93.5915 72.7925L103.384 62.9996L94.9905 54.6056L85.1976 64.3986Z" stroke="#8E209F" stroke-width="5" stroke-linecap="round" stroke-linejoin="round"/>
</svg>
