<svg width="150" height="150" viewBox="0 0 150 150" fill="none" xmlns="http://www.w3.org/2000/svg">
<circle cx="75" cy="75" r="72" stroke="#8E209F" stroke-width="5" stroke-linecap="round" stroke-dasharray="4 12"/>
<path d="M84.3846 102.313C84.3846 103.694 85.5039 104.813 86.8846 104.813C88.2653 104.813 89.3846 103.694 89.3846 102.313H84.3846ZM81.1154 48.9165V46.4165V48.9165ZM69.5769 48.9165V46.4165V48.9165ZM63.8077 54.8495H61.3077H63.8077ZM61.3077 102.313C61.3077 103.694 62.427 104.813 63.8077 104.813C65.1884 104.813 66.3077 103.694 66.3077 102.313H61.3077ZM52.2692 63.2824H98.4231V58.2824H52.2692V63.2824ZM98.4231 63.2824C100.163 63.2824 101.692 64.753 101.692 66.7154H106.692C106.692 62.1244 103.056 58.2824 98.4231 58.2824V63.2824ZM101.692 66.7154V96.3801H106.692V66.7154H101.692ZM101.692 96.3801C101.692 98.3425 100.163 99.8131 98.4231 99.8131V104.813C103.056 104.813 106.692 100.971 106.692 96.3801H101.692ZM98.4231 99.8131H52.2692V104.813H98.4231V99.8131ZM52.2692 99.8131C50.5292 99.8131 49 98.3425 49 96.3801H44C44 100.971 47.6368 104.813 52.2692 104.813V99.8131ZM49 96.3801V66.7154H44V96.3801H49ZM49 66.7154C49 64.753 50.5292 63.2824 52.2692 63.2824V58.2824C47.6368 58.2824 44 62.1244 44 66.7154H49ZM89.3846 102.313V54.8495H84.3846V102.313H89.3846ZM89.3846 54.8495C89.3846 52.6351 88.5299 50.4979 86.9872 48.9114L83.4025 52.3971C84.0237 53.0359 84.3846 53.9168 84.3846 54.8495H89.3846ZM86.9872 48.9114C85.4421 47.3225 83.3315 46.4165 81.1154 46.4165V51.4165C81.9595 51.4165 82.7837 51.7607 83.4025 52.3971L86.9872 48.9114ZM81.1154 46.4165H69.5769V51.4165H81.1154V46.4165ZM69.5769 46.4165C67.3609 46.4165 65.2502 47.3225 63.7051 48.9114L67.2898 52.3971C67.9086 51.7607 68.7328 51.4165 69.5769 51.4165V46.4165ZM63.7051 48.9114C62.1624 50.4979 61.3077 52.6351 61.3077 54.8495H66.3077C66.3077 53.9168 66.6686 53.0359 67.2898 52.3971L63.7051 48.9114ZM61.3077 54.8495V102.313H66.3077V54.8495H61.3077Z" fill="#8E209F"/>
</svg>
