<svg width="151" height="151" viewBox="0 0 151 151" fill="none" xmlns="http://www.w3.org/2000/svg">
<circle cx="75.5" cy="75.5" r="72.5" stroke="#8E209F" stroke-width="5" stroke-linecap="round" stroke-dasharray="4 12"/>
<path d="M60.0084 60.0086V57.5086C58.6277 57.5086 57.5084 58.6279 57.5084 60.0086H60.0084ZM69.3033 60.0086H71.8033C71.8033 58.6279 70.684 57.5086 69.3033 57.5086V60.0086ZM69.3033 87.8933V90.3933C70.684 90.3933 71.8033 89.274 71.8033 87.8933H69.3033ZM60.0084 87.8933H57.5084C57.5084 89.274 58.6277 90.3933 60.0084 90.3933V87.8933ZM81.6964 60.0086V57.5086C80.3157 57.5086 79.1964 58.6279 79.1964 60.0086H81.6964ZM90.9913 60.0086H93.4913C93.4913 58.6279 92.372 57.5086 90.9913 57.5086V60.0086ZM90.9913 75.5001V78.0001C92.372 78.0001 93.4913 76.8808 93.4913 75.5001H90.9913ZM81.6964 75.5001H79.1964C79.1964 76.8808 80.3157 78.0001 81.6964 78.0001V75.5001ZM53.8118 50.1155H97.1879V45.1155H53.8118V50.1155ZM97.1879 50.1155C99.2295 50.1155 100.884 51.7705 100.884 53.8121H105.884C105.884 49.0091 101.991 45.1155 97.1879 45.1155V50.1155ZM100.884 53.8121V97.1881H105.884V53.8121H100.884ZM100.884 97.1881C100.884 99.2297 99.2295 100.885 97.1879 100.885V105.885C101.991 105.885 105.884 101.991 105.884 97.1881H100.884ZM97.1879 100.885H53.8118V105.885H97.1879V100.885ZM53.8118 100.885C51.7702 100.885 50.1152 99.2297 50.1152 97.1881H45.1152C45.1152 101.991 49.0088 105.885 53.8118 105.885V100.885ZM50.1152 97.1881V53.8121H45.1152V97.1881H50.1152ZM50.1152 53.8121C50.1152 51.7705 51.7702 50.1155 53.8118 50.1155V45.1155C49.0088 45.1155 45.1152 49.0091 45.1152 53.8121H50.1152ZM60.0084 62.5086H69.3033V57.5086H60.0084V62.5086ZM66.8033 60.0086V87.8933H71.8033V60.0086H66.8033ZM69.3033 85.3933H60.0084V90.3933H69.3033V85.3933ZM62.5084 87.8933V60.0086H57.5084V87.8933H62.5084ZM81.6964 62.5086H90.9913V57.5086H81.6964V62.5086ZM88.4913 60.0086V75.5001H93.4913V60.0086H88.4913ZM90.9913 73.0001H81.6964V78.0001H90.9913V73.0001ZM84.1964 75.5001V60.0086H79.1964V75.5001H84.1964Z" fill="#8E209F"/>
</svg>
