<svg width="108" height="441" viewBox="0 0 108 441" fill="none" xmlns="http://www.w3.org/2000/svg">
<line x1="56.5" y1="139.5" x2="56.5" y2="439.5" stroke="#8E209F" stroke-width="3" stroke-linecap="round" stroke-dasharray="4 12"/>
<circle cx="54" cy="54" r="52" stroke="#8E209F" stroke-width="3" stroke-linecap="round" stroke-dasharray="4 12"/>
<path d="M42.8889 42.8889V41.8889C42.3366 41.8889 41.8889 42.3366 41.8889 42.8889H42.8889ZM49.5556 42.8889H50.5556C50.5556 42.3366 50.1078 41.8889 49.5556 41.8889V42.8889ZM49.5556 62.8889V63.8889C50.1078 63.8889 50.5556 63.4412 50.5556 62.8889H49.5556ZM42.8889 62.8889H41.8889C41.8889 63.4412 42.3366 63.8889 42.8889 63.8889V62.8889ZM58.4444 42.8889V41.8889C57.8922 41.8889 57.4444 42.3366 57.4444 42.8889H58.4444ZM65.1111 42.8889H66.1111C66.1111 42.3366 65.6634 41.8889 65.1111 41.8889V42.8889ZM65.1111 54V55C65.6634 55 66.1111 54.5523 66.1111 54H65.1111ZM58.4444 54H57.4444C57.4444 54.5523 57.8922 55 58.4444 55V54ZM38.4444 35H69.5556V33H38.4444V35ZM69.5556 35C71.4579 35 73 36.5421 73 38.4444H75C75 35.4376 72.5624 33 69.5556 33V35ZM73 38.4444V69.5556H75V38.4444H73ZM73 69.5556C73 71.4579 71.4579 73 69.5556 73V75C72.5624 75 75 72.5624 75 69.5556H73ZM69.5556 73H38.4444V75H69.5556V73ZM38.4444 73C36.5421 73 35 71.4579 35 69.5556H33C33 72.5624 35.4376 75 38.4444 75V73ZM35 69.5556V38.4444H33V69.5556H35ZM35 38.4444C35 36.5421 36.5421 35 38.4444 35V33C35.4376 33 33 35.4376 33 38.4444H35ZM42.8889 43.8889H49.5556V41.8889H42.8889V43.8889ZM48.5556 42.8889V62.8889H50.5556V42.8889H48.5556ZM49.5556 61.8889H42.8889V63.8889H49.5556V61.8889ZM43.8889 62.8889V42.8889H41.8889V62.8889H43.8889ZM58.4444 43.8889H65.1111V41.8889H58.4444V43.8889ZM64.1111 42.8889V54H66.1111V42.8889H64.1111ZM65.1111 53H58.4444V55H65.1111V53ZM59.4444 54V42.8889H57.4444V54H59.4444Z" fill="#8E209F"/>
</svg>
