<svg width="108" height="441" viewBox="0 0 108 441" fill="none" xmlns="http://www.w3.org/2000/svg">
<line x1="55.5" y1="139.5" x2="55.5" y2="439.5" stroke="#8E209F" stroke-width="3" stroke-linecap="round" stroke-dasharray="4 12"/>
<circle cx="54" cy="54" r="52" stroke="#8E209F" stroke-width="3" stroke-linecap="round" stroke-dasharray="4 12"/>
<path d="M60.9556 46.0376L67.9795 39.0137M71.9932 35L67.9795 39.0137L71.9932 35ZM52.7075 54.2857C53.7437 55.3081 54.5675 56.5254 55.1313 57.8674C55.6951 59.2095 55.9879 60.6498 55.9928 62.1055C55.9976 63.5612 55.7145 65.0035 55.1597 66.3493C54.6049 67.6951 53.7893 68.9179 52.76 69.9473C51.7307 70.9766 50.5079 71.7921 49.1621 72.347C47.8162 72.9018 46.374 73.1849 44.9183 73.18C43.4626 73.1751 42.0222 72.8824 40.6802 72.3185C39.3381 71.7547 38.1208 70.931 37.0984 69.8948C35.0878 67.8131 33.9753 65.025 34.0004 62.1309C34.0256 59.2369 35.1864 56.4686 37.2328 54.4221C39.2793 52.3757 42.0476 51.2148 44.9417 51.1897C47.8357 51.1646 50.6238 52.2771 52.7055 54.2877L52.7075 54.2857ZM52.7075 54.2857L60.9556 46.0376L52.7075 54.2857ZM60.9556 46.0376L66.9761 52.0581L74 45.0342L67.9795 39.0137L60.9556 46.0376Z" stroke="#8E209F" stroke-width="2" stroke-linecap="round" stroke-linejoin="round"/>
</svg>
