<svg width="108" height="441" viewBox="0 0 108 441" fill="none" xmlns="http://www.w3.org/2000/svg">
<line x1="55.5" y1="139.5" x2="55.5" y2="439.5" stroke="#8E209F" stroke-width="3" stroke-linecap="round" stroke-dasharray="4 12"/>
<circle cx="54" cy="54" r="52" stroke="#8E209F" stroke-width="3" stroke-linecap="round" stroke-dasharray="4 12"/>
<path d="M73 76C73 76.5523 73.4477 77 74 77C74.5523 77 75 76.5523 75 76H73ZM64 61V60V61ZM44 61V60V61ZM34 71H33H34ZM33 76C33 76.5523 33.4477 77 34 77C34.5523 77 35 76.5523 35 76H33ZM75 76V71H73V76H75ZM75 71C75 68.0826 73.8411 65.2847 71.7782 63.2218L70.364 64.636C72.0518 66.3239 73 68.6131 73 71H75ZM71.7782 63.2218C69.7153 61.1589 66.9174 60 64 60V62C66.3869 62 68.6761 62.9482 70.364 64.636L71.7782 63.2218ZM64 60H44V62H64V60ZM44 60C41.0826 60 38.2847 61.1589 36.2218 63.2218L37.636 64.636C39.3239 62.9482 41.6131 62 44 62V60ZM36.2218 63.2218C34.1589 65.2847 33 68.0826 33 71H35C35 68.6131 35.9482 66.3239 37.636 64.636L36.2218 63.2218ZM33 71V76H35V71H33ZM63 41C63 45.9706 58.9706 50 54 50V52C60.0751 52 65 47.0751 65 41H63ZM54 50C49.0294 50 45 45.9706 45 41H43C43 47.0751 47.9249 52 54 52V50ZM45 41C45 36.0294 49.0294 32 54 32V30C47.9249 30 43 34.9249 43 41H45ZM54 32C58.9706 32 63 36.0294 63 41H65C65 34.9249 60.0751 30 54 30V32Z" fill="#8E209F"/>
</svg>
